<svg xmlns="http://www.w3.org/2000/svg" width="1024" height="1024" viewBox="0 0 1024 1024"><path fill="#313342" d="M484.153 34.216c11.456-.581 22.94.219 34.205 2.383 32.603 6.18 51.334 19.39 75.568 40.98a378 378 0 0 1 31.468 31.452c4.023 4.6 17.533 24.713 19.722 26.249 4.763 3.344 10.032 6.189 15.004 9.227a2538 2538 0 0 0 33.174 19.958c35.497 21.146 73.922 43.389 108.296 65.799 2.763-3.443 15.9-18.565 19.03-17.944 8.133 1.614 28.14 16.553 34.107 21.384 24.23 19.618 41.449 41.201 54.734 69.334 3.643 4.521 6.132 20.343 9.319 24.037 8.267 7.851 14.63 18.886 22.528 26.908 15.185 15.424 19.661 40.667 4.173 58.67 2.331 7.147 5.199 13.644 7.218 21.069a93.2 93.2 0 0 1 2.752 33.516c-.824 7.909-3.627 18.706-5.484 26.759a1129 1129 0 0 1-10.263 42.476c-18.112 69.784-39.032 139.966-66.146 206.818-13.843 34.131-30.72 72.092-49.709 104.145-30.837 52.051-78.211 112.006-139.081 128.757-19.187 5.281-41.396 4.593-58.824-5.371-32.471-18.564-46.088-63.887-55.152-98.196-13.749-51.121-21.333-104.92-34.63-155.749-10.729-41.013-28.454-102.81-64.417-127.981-22.996-16.095-50.638-33.018-74.726-48.697a3867 3867 0 0 1-41.243-27.638c-9.07-6.16-18.85-13.012-28.267-18.567-46.626 43.739-111.96 95.764-178.017 102.97-28.708 3.132-46.788-16.856-59.184-40.399a198.3 198.3 0 0 1-22.38-84.541c-4.42-97.267 58.75-182.416 121.14-250.802a1109 1109 0 0 1 106.564-101.583c20.693-16.994 41.665-33.596 65.888-45.374a214.8 214.8 0 0 1 85.973-21.71c1.419-5.369 2.257-9.38 5.199-14.07 7.158-2.905 23.35-3.833 31.461-4.269"/><path fill="#fdfdfd" d="M446.344 65.218c18.954-.853 44.927 3.117 61.641 12.222 6.992 24.536 3.228 53.545.807 78.533-1.4 14.443-5.884 29.639-1.858 44.045 5.303 18.977 25.316 24.799 39.972 34.809 21.31 14.555 42.798 28.75 65.377 41.312 20.039 11.882 38.999 5.432 59.506-2.014 33.383-12.121 67.878-20.876 101.826-31.435 54.189 43.739 85.053 104.918 85.885 175.007.07 5.922-4.015 19.239-5.681 25.508a2983 2983 0 0 1-12.759 45.654c-26.346 93.351-54.745 187.755-92.672 277.108-23.616 55.635-55.894 110.423-104.831 147.379-12.144 9.17-22.224 15.911-36.491 21.691-17.766-31.766-24.689-61.73-32.628-97.151a2299 2299 0 0 1-11.933-55.636c-10.398-53.088-23.8-115.18-49.476-162.762a122.4 122.4 0 0 0-28.988-36.066c-11.182-9.342-24.757-16.682-36.946-24.714-31.875-20.837-63.223-41.936-95.124-62.8-23.359-15.278-47.776-35.661-74.484-44.332-18.93-6.145-40.874-2.072-57.91 7.92-40.923 24.002-82.737 74.264-95.845 119.791-28.728-20.9-42.478-73.607-43.876-107.716-3.802-92.745 55.801-172.768 114.691-238.345a1025 1025 0 0 1 107.965-103.233c22.416-18.309 39.999-32.932 66.824-45.612a202.8 202.8 0 0 1 77.008-19.163"/><path fill="#313342" d="M378.525 284.202c35.092-4.001 60.887 23.35 63.492 57.226 3.876 50.416-39.89 109.494-91.894 113.294-9.378 1.346-22.376-1.622-30.758-6.109-32.23-17.253-37.243-65.451-20.502-95.496-1.184-1.911-1.859-3.542-2.772-5.578 2.879-10.447 15.85-29.61 25.257-36.187.246-.172 3.856-.836 3.86-.84 16.008-15.04 31.164-24.181 53.317-26.31"/><path fill="#838487" d="M379.111 298.32c5.257 1.287 13.704 5.785 18.474 8.408-4.526 14.88-16.912 27.247-22.744 40.696 5.183 4.377 24.294 15.879 31.435 20.709-4.531 7.702-15.238 20.269-20.972 28.568-8.931-4.723-19.985-12.265-28.461-16.665-2.628-1.365-21.921 30.854-26.236 34.588-5.153 2.03-15.176-4.775-20.469-7.432 7.763-13.085 17.225-27.513 24.471-40.565-7.929-7.726-21.201-11.332-30.376-22.295 4.371-9.187 12.382-19.949 19.332-27.191 9.408 4.752 21.652 12.922 30.18 16.631 7.326-8.876 15.721-27.733 25.366-35.452"/><path fill="#fdfdfd" d="M376.598 290.649a54.1 54.1 0 0 1 26.192 3.396c5.562 2.153 12.962 6.585 16.814 10.909 39.517 44.359-.1 117.533-47.534 137.875-14.157 6.071-34.362 7.467-47.687.632-31.566-16.192-33.535-57.501-20.97-86.681 6.786 3.992 15.391 8.761 21.756 13.13-5.848 10.624-13.212 21.224-19.126 31.888-1.865 3.364-2.798 5.055-1.739 8.661 3.249 10.275 12.07 14.347 20.255 19.869 7.113 4.798 16.287 10.3 23.095 2.382 7.733-8.994 13.48-20.227 21.607-28.843 4.986 2.765 18.814 13.649 24.298 11.943 7.689-3.194 13.256-14.337 18.373-20.09 20.044-22.541 4.76-29.54-14.815-40.992 5.556-9.926 16.221-25.854 20.224-35.499-3.28-6.891-8.04-13.314-14.546-17.779-30.896-21.202-35.101-1.368-51.347 24.296-6.554-4.477-13.227-8.001-19.692-12.357 12.435-12.675 27.592-19.634 44.842-22.74"/><path fill="#5b5c67" d="M334.617 419.811c4.107-4.588 21.14-30.048 23.583-30.718l1.484.97a134 134 0 0 1 7.878 3.903l-3.046 3.933c-6.93 9.929-15.322 22.692-22.721 31.866-2.355-4.478-3.692-6.369-7.178-9.954"/><path fill="#424450" d="M359.684 390.063a134 134 0 0 1 7.878 3.903l-3.046 3.933c-2.442-3.067-3.101-4.359-4.832-7.836"/><path fill="#5b5c67" d="M401.182 316.027c1.751 1.482 5.356 5.31 7.132 7.083-3.68 7.455-12.357 21.105-17.006 28.059a743 743 0 0 0-7.592-4.839c4.409-9.584 12.513-20.438 17.466-30.303"/><path fill="#424450" d="M405.535 378.451c.782.634 2.615 5.174 5.723 8.275-5.084 6.089-10.857 14.005-15.792 20.409l-.789-.298-.863-1.745c-1.376-2.794-1.497-3.383-3.777-5.505 4.982-5.991 10.082-14.349 15.498-21.136"/><path fill="#5b5c67" d="M310.93 414.467c2.819.382 18.881 8.608 21.238 10.486q.158 1.323.273 2.652l-.371.281c-2.988-1.036-19.045-11.337-21.14-13.419"/><path fill="#424450" d="M411.502 370.259c3.45 2.902 6.196 8.131 3.881 12.509l-.625.034c-1.259-1.166-3.07-4.916-3.981-6.608.437-2.185.544-3.727.725-5.935m-39.61 26.474c2.414.306 10.161 4.874 11.263 7.291l-.922-.361c-2.916-1.159-3.629-1.179-6.675-1.568-2.313-2-3.263-2.497-3.666-5.362"/><path fill="#313342" d="M564.825 417.704a32 32 0 0 1 2.763-.127c37.02-.43 56.428 28.868 55.982 63.404a107.9 107.9 0 0 1-33.5 75.725c-14.418 13.985-31.718 22.028-51.871 21.788a52.64 52.64 0 0 1-30.544-11.355c-11.408-9.187-17.973-21.358-20.871-35.841-.695-3.471-.539-12.214-1.536-15.199-2.603-7.799-5.07-10.361-5.903-18.859a68.68 68.68 0 0 1 15.715-50.142c7.741-9.224 19.606-17.613 31.415-20.623 3.44-.877 10.7-1.447 13.349-2.363 9.958-3.447 14.334-5.447 25.001-6.408"/><path fill="#fdfdfd" d="M566.894 424.215a45 45 0 0 1 3.61-.081c31.755.848 48.243 30.465 46.534 59.341-1.364 25.276-13.213 51.729-32.021 68.924-24.128 22.058-56.829 28.544-80.449 2.256-7.973-9.828-9.6-17.357-11.978-29.254 5.316 5.136 16.511 15.278 22.631 17.781 46.223 18.906 87.558-43.09 71.69-83.879-6.605-16.978-19.496-25.529-34.567-32.23 5.906-2.162 8.213-2.437 14.55-2.858"/><path fill="#838487" d="M535.312 436.616c13.656-1.03 20.152 8.215 21.828 20.665 2.802 20.821-8.221 42.749-25.862 53.868-5.554 3.5-10.445 4.579-16.858 5.376-11.915.293-21.228-4.359-23.106-16.733-4.461-29.397 15.316-57.707 43.998-63.176"/><defs><linearGradient id="a" gradientUnits="userSpaceOnUse" x1="521.215" y1="474.111" x2="555.85" y2="504.708"><stop offset="0" stop-color="#70727f"/><stop offset="1" stop-color="#8d8e91"/></linearGradient></defs><path fill="url(#a)" d="M551.751 435.464c8.607 1.425 13.169 10.234 15.641 17.711 4.773 14.434 2.068 29.003-4.583 42.339-9.905 19.859-36.056 41.384-59.047 29.413-3.094-1.668-5.977-3.714-8.893-5.683 9.536 2.615 9.564 4.645 20.659 4.08 36.365-1.853 67.967-62.848 36.223-87.86"/><path fill="#313342" d="M390.935 95.693c37.335-3.8 59.441 27.669 58.769 62.245-.928 47.786-36.371 97.172-87.507 96.466-18.986-1.868-33.239-11.837-41.837-28.747-5.103-10.038-5.474-17.249-6.492-28.196-27.888-34.511 5.388-86.647 43.217-95.414 4.137-.958 11.128-.157 14.763-1.3 7.235-2.274 11.281-4.207 19.087-5.054"/><path fill="#fdfdfd" d="M393.73 101.704c10.225-1.559 26.166 4.246 33.215 11.446 29.454 30.382 15.828 83.671-10.818 111.226-22.369 23.131-56.456 35.241-82.2 9.904-7.885-8.67-12.018-19.608-13.029-31.156 4.861 4.373 10.12 8.904 15.792 12.009 44.132 24.16 92.433-34.327 78.478-76.629-6.207-18.815-16.747-26.295-33.145-34.901 4.464-1.074 7.115-1.412 11.707-1.899"/><path fill="#838487" d="M360.886 114.144c41.41-4.859 31.68 72.172-20.086 80.208-4.814.415-11.736.446-15.481-2.517-15.94-12.608-9.48-39.266.554-52.965 9.383-12.81 20.268-21.913 35.013-24.726"/><defs><linearGradient id="b" gradientUnits="userSpaceOnUse" x1="355.482" y1="155.734" x2="389.682" y2="171.381"><stop offset="0" stop-color="#767881"/><stop offset="1" stop-color="#8d8e92"/></linearGradient></defs><path fill="url(#b)" d="M379.605 112.408c37.716 9.956 15.372 93.28-38.933 89.912-3.074-.512-4.616-.762-7.604-1.709q1.216-.048 2.433-.117c33.772-1.934 58.167-30.648 56.275-64.075-.556-9.819-4.773-17.695-12.171-24.011"/><path fill="#313342" d="M761.753 417.162c6.765-1.014 16.145.461 21.8 4.392 25.65 17.828 14.146 59.984-15.396 65.604-30.572 1.779-48.488-33.483-29.369-57.12 6.857-8.476 12.311-11.418 22.965-12.876"/><path fill="#fdfdfd" d="M760.883 424.146c25.821-.481 26.291 42.871-4.376 48.197a19.27 19.27 0 0 1-10.031-2.357c-14.33-7.892-9.262-32.242 2.328-40.322 4.45-3.102 6.77-4.428 12.079-5.518"/><path fill="#5b5c67" d="M784.369 438.777c5.012 4.41 1.229 16.138-1.402 21.218-4.06 7.836-9.15 13.109-17.639 15.874l-.51-.253c14.115-6.821 23.195-20.86 19.551-36.839"/><path fill="#313342" d="M673.798 451.164c7.053-.557 15.433 1.165 21.322 5.198a31.18 31.18 0 0 1 12.838 20.035c3.902 20.742-9.968 41.266-30.973 44.96-7.593.854-15.944-1.693-21.992-6.321a32.55 32.55 0 0 1-12.478-21.621c-2.557-20.018 10.776-39.818 31.283-42.251"/><path fill="#fdfdfd" d="M670.864 458.572c26.964-2.713 26.33 40.208-1.8 48.382-19.515 2.273-23.87-16.897-17.503-31.401 4.178-9.518 10.139-13.388 19.303-16.981"/><path fill="#5b5c67" d="M695.743 475.375c.18 15.034-1.601 24.393-14.799 33.353-.026-1.113 5.929-6.619 7.229-8.008 7.428-7.941 5.249-16.796 7.57-25.345"/><path fill="#313342" d="M756.681 324.647c7.435-.405 13.609.543 20.025 4.527a32.05 32.05 0 0 1 14.251 20.053c4.797 20.835-8.297 40.861-29.151 45.386-17.171.06-33.387-10.47-36.182-28.166a37.34 37.34 0 0 1 6.63-27.541c6.118-8.393 14.306-12.743 24.427-14.259"/><path fill="#fdfdfd" d="M756.586 331.626c26.575 2.657 19.462 43.585-6.371 47.976-28.217.385-21.673-43.214 6.371-47.976"/><path fill="#5b5c67" d="M776.519 341.446c11.173 18.244-4.487 40.964-24.521 43.619l-1.078-.384c1.447-.991 4.974-.574 7.086-1.53 16.768-7.585 24.528-24.744 18.513-41.705"/><path fill="#313342" d="M665.798 355.607c7.595-.605 15.325-.594 21.999 3.559 26.463 16.468 15.726 58.602-12.903 65.397a30.12 30.12 0 0 1-20.736-4.358c-28.209-17.634-21.251-58.224 11.64-64.598"/><path fill="#fdfdfd" d="M665.622 362.061c23.614-1.178 27.505 38.952-2.933 47.813-27.571 2.713-24.535-41.656 2.933-47.813"/><path fill="#5b5c67" d="M686.825 371.308c2.136 1.902 3.705 6.082 4.054 8.861 1.917 15.24-7.623 31.819-23.35 34.556l-.614-.337.217-.532c18.625-4.425 26.554-25.478 19.693-42.548"/><path fill="#313342" d="M470.992 244.091c11.033-1.39 19.059 9.095 28.483 13.894 12.725 6.48 18.544 17.29 2.391 24.779-10.779 1.691-20.269-8.989-29.248-13.762-11.7-6.22-16.737-18.731-1.626-24.911"/><path fill="#fdfdfd" d="M472.748 249.445c5.633.271 25.246 15.396 31.242 19.02 4.043 2.443-1.237 6.901-3.768 8.441-6.871.449-17.05-8.401-23.252-12.222-6.924-4.266-14.675-8.999-4.222-15.239"/><path fill="#313342" d="M570.671 310.091c8.699.02 20.228 11.187 27.951 15.36 12.146 6.562 16.419 19.666-.501 23.514-10.176.552-17.669-8.605-25.907-13.023-12.58-6.748-19.599-19.656-1.543-25.851"/><path fill="#fdfdfd" d="M570.152 316.539c.817-.064 1.617-.127 2.436-.05 3.24.303 27.147 16.629 29.686 19.689.553.667.719 1.653.535 2.497-.473 2.178-2.701 3.187-4.446 4.202-6.601 1.725-25.626-13.703-31.397-18.456-3.675-3.025.457-6.256 3.186-7.882m328.399 127.153c3.816 2.296 8.196 5.721 11.932 8.268 10.655 7.265 20.836 15.102 31.277 22.654a1768 1768 0 0 1-45.705 169.713c-33.773 104.826-98.547 285.013-214.687 320.38-15.339 3.441-26.693 3.605-41.649-1.067a505 505 0 0 0 16.376-8.811c91.107-52.281 137.015-176.19 170.115-269.735 27.905-78.865 50.461-160.693 72.341-241.402M515.59 80.35c9.249 4.482 23.872 15.047 32.583 20.98a1351 1351 0 0 0 36.581 23.63 12207 12207 0 0 0 183.381 111.902c-11.339 3.526-23.294 6.798-34.756 10.239-19.518 5.209-39.327 12.26-58.554 18.519-24.144 7.861-38.901 17.313-62.763 2.293-20.08-12.639-40.681-25.047-60.551-38.156-10.224-6.909-22.911-12.452-31.732-21.06-7.468-7.287-8.169-19.71-6.689-29.324.759-4.932 1.184-10.156 1.696-15.101a1333 1333 0 0 0 2.757-29.319c1.437-17.705 2.437-37.33-1.953-54.603"/><path fill="#313342" d="M610.118 160.137c49.645-5.595 43.14 67.908-8.501 75.772-7.812.616-16.265-.453-22.719-4.942-16.429-11.427-13.664-34.49-3.246-48.842 9.28-12.784 19.257-19.292 34.466-21.988"/><path fill="#838487" d="M611.803 167.16c26.249-2.853 24.365 24.334 13.58 39.442a45.74 45.74 0 0 1-29.766 18.872c-37.103 1.781-21.799-52.458 16.186-58.314"/><path fill="#fdfdfd" d="M866.58 422.219a1007 1007 0 0 1 25.224 17.003c-6.008 28.931-14.639 58.848-22.871 87.276-3.641 12.574-6.989 25.21-10.738 37.764a2768 2768 0 0 1-19.12 59.997c-17.176 52.156-34.126 103.6-55.798 154.134-23.187 54.069-51.743 105.753-96.442 145.103-16.298 14.347-32.307 26.684-52.656 34.933l-3.491 1.675c-9.133-6.828-12.514-10.152-19.525-19.025a806 806 0 0 0 10.315-5.363c80.628-43.273 123.168-138.207 154.244-219.615a2509 2509 0 0 0 61.193-187.567l20.291-72.094c3.143-11.331 5.995-23.011 9.374-34.221m-613.355 38.97c21.562-3.919 47.125 13.5 64.145 25.201-7.204 8.19-22.168 20.801-30.608 27.674-29.612 24.115-61.577 46.983-97.365 60.965-20.577 7.721-33.16 11.719-55.323 9.115 3.035-7.832 6.321-16.467 10.115-23.952 19.904-39.272 62.693-93.649 109.036-99.003m540.373-218.475.931-.064c1.057-.035 3.061.024 3.984.608 21.394 13.527 45.812 38.499 58.775 59.836 22.981 37.824 34.824 85.635 35.888 129.468l-3.971-3.09c-7.172-5.049-15.252-10.058-22.666-14.839a302 302 0 0 0-3.675-34.557 225.4 225.4 0 0 0-56.292-116.367c-6.012-6.552-14.179-14.945-21.338-20.031 2.706-.394 5.63-.661 8.364-.964"/><path fill="#fdfdfd" d="M821.273 225.4c4.331 2.107 8.991 5.437 13.059 8.09 32.312 21.074 58.484 53.215 70.392 90.082 5.68 17.583 4.887 34.721.51 52.399-.656 2.715-1.754 8.468-2.901 10.666l-.491-.778c-4.984-15.417-8.562-31.145-13.85-46.377a214 214 0 0 0-57.008-86.485c-6.033-5.497-13.055-10.694-19.595-15.643 3.345-3.852 6.552-8.013 9.884-11.954m93.482 156.56c2.336 2.58 6.414 9.673 8.248 12.805 12.729 21.736 22.306 47.604 19.995 73.127l-7.838-6.293c-10.576-8.548-24.233-16.816-35.56-25.306 4.312-18.888 10.337-35.564 15.155-54.333M484.066 46.215a126.74 126.74 0 0 1 71.871 17.423c-1.763 6.792-4.461 11.998-7.867 18.063q-6.132-2.51-12.236-5.088c-10.859-4.874-20.836-11.098-31.95-15.212-9.453-3.498-20.658-5.65-30.709-7.056-4.984-.696-9.725-.717-14.898-1.592l-.567-1.076c.872-5.831 21.482-5.215 26.356-5.462m72.856 52.699c3.281.451 30.508 16.342 34.751 18.789a9196 9196 0 0 1 130.166 77.667 3290 3290 0 0 1 37.704 22.758c4.863 2.937 20.29 11.813 23.645 15.205l-6.598.788c-19.286-12.836-40.571-24.883-60.4-36.915l-62.747-38.36a2802 2802 0 0 1-96.521-59.932m9.351-27.704c18.08 11.16 40.183 35.218 54.587 50.866-2.314-1.319-4.515-2.867-6.727-4.358-17.961-11.442-37.887-21.895-56.988-31.394 3.938-5.425 6.232-9.083 9.128-15.114m354.293 277.116c4.299 3.583 19.049 21.687 21.144 27.507 2.669 7.417 2.012 14.278-1.193 21.297-.427.649-.803 1.01-1.323 1.591-1.904-1.948-7.492-11.902-9.533-14.926-3.363-4.985-6.766-9.663-10.324-14.533 1.061-7.819 1.198-13.162 1.229-20.936"/></svg>